<svg xmlns="http://www.w3.org/2000/svg" viewBox="0 0 64 64" role="img" aria-label="moon rover sprite">
  <defs>
    <filter id="shadow" x="-30%" y="-30%" width="160%" height="160%">
      <feDropShadow dx="0" dy="3" stdDeviation="2" flood-color="#000" flood-opacity="0.55"/>
    </filter>
  </defs>
  <g filter="url(#shadow)">
    <ellipse cx="32" cy="54" rx="19" ry="5" fill="#111827" opacity=".55"/>
    <path d="M19 30c0-9 6-16 14-16s14 7 14 16v13c0 5-4 9-9 9H28c-5 0-9-4-9-9V30Z" fill="#cbd5e1" stroke="#f8fafc" stroke-width="3"/>
    <path d="M24 27c1-6 5-9 10-9s9 4 10 9c-2 4-6 7-10 7s-8-3-10-7Z" fill="#1e293b" stroke="#93c5fd" stroke-width="3"/>
    <circle cx="37" cy="26" r="3" fill="#bfdbfe"/>
    <path d="M18 37h-7c-3 0-5 2-5 5s2 5 5 5h8" fill="none" stroke="#94a3b8" stroke-width="5" stroke-linecap="round"/>
    <path d="M47 37h7c3 0 5 2 5 5s-2 5-5 5h-8" fill="none" stroke="#94a3b8" stroke-width="5" stroke-linecap="round"/>
    <circle cx="22" cy="53" r="6" fill="#0f172a" stroke="#64748b" stroke-width="3"/>
    <circle cx="43" cy="53" r="6" fill="#0f172a" stroke="#64748b" stroke-width="3"/>
    <path d="M32 14V7" stroke="#e2e8f0" stroke-width="4" stroke-linecap="round"/>
    <circle cx="32" cy="6" r="3" fill="#bfdbfe"/>
  </g>
</svg>
